<svg version="1.1" id="Layer_1" xmlns="http://www.w3.org/2000/svg" xmlns:xlink="http://www.w3.org/1999/xlink" x="0px" y="0px"
	 width="100%" viewBox="0 0 470 490" enable-background="new 0 0 470 490" xml:space="preserve">
<path fill="#F8F8F7" opacity="1.000000" stroke="none" 
	d="
M1.000000,185.000000 
	C1.000000,123.333336 1.000000,62.166668 1.000000,1.000000 
	C157.666672,1.000000 314.333344,1.000000 471.000000,1.000000 
	C471.000000,164.333328 471.000000,327.666656 471.000000,491.000000 
	C314.333344,491.000000 157.666672,491.000000 1.000000,491.000000 
	C1.000000,389.166656 1.000000,287.333344 1.000000,185.000000 
M332.673645,183.022537 
	C332.786194,182.883041 332.898743,182.743546 333.448761,182.366211 
	C333.676086,181.927277 333.903412,181.488327 334.767090,180.642715 
	C335.032623,178.848282 335.612915,177.033676 335.499420,175.263535 
	C335.248077,171.342300 335.139496,167.166428 329.990356,165.203262 
	C329.409363,165.062653 328.828400,164.922043 328.152557,164.287689 
	C327.882019,164.134705 327.611450,163.981720 326.554443,163.478149 
	C267.470673,163.477173 208.386749,163.426102 149.303574,163.614700 
	C146.163254,163.624725 143.029404,165.658356 139.202713,166.982071 
	C133.432343,175.157379 135.548035,183.977539 144.757050,187.254196 
	C160.879364,187.359131 177.001740,187.560883 193.123978,187.550323 
	C236.543274,187.521866 279.962891,187.461777 323.380829,187.178329 
	C326.084686,187.160690 328.775208,185.108246 331.971619,183.713562 
	C332.033051,183.531250 332.094513,183.348938 332.673645,183.022537 
M251.662704,329.066803 
	C251.852386,328.745300 252.042068,328.423767 252.117157,328.090210 
	C252.117157,328.090210 252.146118,328.201721 252.686600,327.953094 
	C253.195389,327.365173 253.704178,326.777222 254.134827,326.114929 
	C254.134827,326.114929 254.129578,326.222656 254.680923,326.062195 
	C254.863739,325.741364 255.046539,325.420532 255.114914,325.082886 
	C255.114914,325.082886 255.137207,325.196381 255.681442,324.941864 
	C256.198700,324.350220 256.715942,323.758575 257.129303,323.169434 
	C257.129303,323.169434 257.183716,323.257965 257.812103,323.110352 
	C258.875031,322.068726 259.937958,321.027130 261.609924,319.717224 
	C278.747406,302.155243 295.884888,284.593262 313.006073,267.006439 
	C313.006073,267.006439 313.028656,267.022461 313.502472,266.859650 
	C313.655670,266.573944 313.808868,266.288269 314.507263,265.754852 
	C314.806946,265.266907 315.106598,264.778992 315.179352,264.252136 
	C315.179352,264.252136 315.383972,264.357605 315.995087,264.124969 
	C319.608337,260.448853 323.374603,256.908905 326.796356,253.062469 
	C331.143616,248.175644 331.626190,242.164734 328.387756,236.975632 
	C326.245331,233.542648 319.283508,229.196930 313.829407,230.749084 
	C311.739288,231.343933 309.845428,232.628571 307.265656,233.942657 
	C300.803802,240.527176 294.341919,247.111694 287.266815,254.000961 
	C285.406921,256.255615 283.546997,258.510284 281.798126,260.806244 
	C281.798126,260.806244 281.761627,260.693542 281.132263,260.918854 
	C266.530914,275.598480 251.917038,290.265686 237.335983,304.965424 
	C233.095520,309.240417 228.948837,313.608429 224.146225,318.146454 
	C222.077026,320.020996 220.007843,321.895538 217.188980,323.885406 
	C214.404343,325.603577 212.100327,324.871765 209.741653,322.812683 
	C207.317017,320.696045 204.592224,318.923279 202.024628,317.003418 
	C202.024628,317.003418 202.037689,316.980865 201.518845,316.546814 
	C194.657913,309.636597 187.635239,302.877625 180.987762,295.767822 
	C175.764435,290.181213 167.750320,292.193909 163.632599,295.910370 
	C158.880478,300.199402 156.824509,309.289154 161.859070,314.056000 
	C161.859070,314.056000 161.799530,314.136139 161.815994,314.607635 
	C161.944885,314.934753 162.183853,315.119446 162.961670,315.723145 
	C176.011566,328.806030 189.061462,341.888916 202.158615,355.643524 
	C208.656174,364.180756 221.826828,362.450531 225.151123,355.126312 
	C225.151123,355.126312 225.128815,355.246552 225.681152,355.076935 
	C225.869339,354.757141 226.057541,354.437347 226.133347,354.105377 
	C226.133347,354.105377 226.168228,354.212891 226.716003,353.941559 
	C227.128876,353.298126 227.541763,352.654663 228.289536,351.409698 
	C231.214157,348.681671 234.138763,345.953644 237.644821,343.019623 
	C238.154190,342.382904 238.663544,341.746185 239.066177,341.092773 
	C239.066177,341.092773 239.080917,341.199768 239.643631,341.058075 
	C239.841843,340.743317 240.040054,340.428558 240.115250,340.157440 
	C240.115250,340.157440 240.196411,340.259644 240.858887,340.096344 
	C243.320221,337.453339 245.781570,334.810364 248.124832,332.106415 
	C248.124832,332.106415 248.103943,332.237640 248.661148,332.070312 
	C248.856339,331.750763 249.051529,331.431183 249.124756,331.104919 
	C249.124756,331.104919 249.163055,331.220917 249.705383,330.968323 
	C250.207626,330.362610 250.709885,329.756897 251.099258,329.115509 
	C251.099258,329.115509 251.105545,329.233734 251.662704,329.066803 
M403.339508,429.586761 
	C403.274902,429.411499 403.210327,429.236206 403.415497,428.688110 
	C403.415497,428.688110 403.495789,428.235016 403.871338,427.628815 
	C403.771362,426.707184 403.671387,425.785583 403.608765,423.946198 
	C403.597198,327.681213 403.585632,231.416245 403.889038,134.406387 
	C403.785034,133.888245 403.681030,133.370102 403.611267,131.961304 
	C403.594757,128.687805 403.578217,125.414314 403.902649,121.244354 
	C403.772766,117.100174 403.642883,112.956001 403.515717,108.072617 
	C403.100677,106.311020 402.883057,104.473007 402.235931,102.801270 
	C399.660217,96.147667 397.486084,89.153091 389.390869,85.701309 
	C387.165314,81.681458 382.902710,81.150795 378.752655,79.122627 
	C377.542419,78.656654 376.341248,77.810890 375.120544,77.781685 
	C356.821808,77.343765 338.521271,76.941536 320.218872,76.737892 
	C317.570892,76.708427 315.625153,78.143036 315.844513,81.535362 
	C316.155609,86.346855 316.045410,91.185600 315.877075,96.859627 
	C315.948578,98.903404 316.020081,100.947182 315.960297,103.652069 
	C316.641968,104.425308 317.323608,105.198547 318.916138,106.210312 
	C334.226349,106.201736 349.536560,106.193161 365.402405,106.576180 
	C371.165009,108.704041 372.587585,113.373352 372.408813,119.808861 
	C372.477997,135.237808 372.547150,150.666748 372.299591,166.817078 
	C372.403442,167.843384 372.507294,168.869675 372.411774,170.766144 
	C372.477295,172.543716 372.542816,174.321289 372.293030,176.883148 
	C372.396515,178.552338 372.500000,180.221527 372.407013,182.744400 
	C372.474152,184.195862 372.541290,185.647324 372.291138,187.882355 
	C372.395203,189.551865 372.499237,191.221359 372.407227,193.793610 
	C372.474243,196.556686 372.541260,199.319763 372.300201,202.756882 
	C372.403320,203.473740 372.506439,204.190613 372.411865,205.834381 
	C372.395081,213.979950 372.343201,222.125610 372.368469,230.271057 
	C372.429260,249.880463 372.526154,269.489777 372.296051,289.883850 
	C372.402649,291.550903 372.509216,293.217987 372.433502,295.612213 
	C372.495087,296.104248 372.556702,296.596283 372.305359,297.758698 
	C372.409241,298.473724 372.513153,299.188751 372.415924,300.830383 
	C372.400116,325.613342 372.356842,350.396301 372.380554,375.179230 
	C372.391663,386.814941 372.531769,398.450562 372.304840,410.758698 
	C372.406860,411.474609 372.508881,412.190521 372.419708,413.648834 
	C372.493835,416.058716 372.567963,418.468567 372.291901,421.645416 
	C372.331146,426.764008 369.726837,429.738190 363.913300,430.765381 
	C325.926483,430.769165 287.939636,430.748108 249.952866,430.786652 
	C229.298599,430.807617 208.644455,430.929871 187.075806,430.792694 
	C160.047714,430.832214 133.019608,430.871735 105.366249,430.674194 
	C103.345078,428.374634 101.323906,426.075043 99.180557,423.753357 
	C99.180557,423.753357 99.217468,423.634827 99.366043,422.749847 
	C99.269905,420.256866 99.090912,417.763885 99.089584,415.270874 
	C99.036858,316.367767 98.999725,217.464661 98.962555,118.561546 
	C98.959488,110.385658 102.738205,106.700302 110.764290,106.656326 
	C124.559639,106.580750 138.354141,106.351173 153.062286,106.280159 
	C155.693130,106.691185 156.445282,105.485504 156.398041,102.956032 
	C156.266174,95.894318 156.411621,88.827614 156.301041,81.765167 
	C156.280365,80.445122 155.579437,79.135735 154.741867,77.202957 
	C151.307968,76.961121 147.869217,76.458374 144.440979,76.521881 
	C128.167313,76.823380 111.887451,77.072754 95.629272,77.785141 
	C89.417107,78.057350 84.066704,81.027603 79.996460,86.015625 
	C79.996460,86.015625 80.019928,86.076462 79.410034,86.318443 
	C77.515236,88.850807 75.620438,91.383171 73.104881,94.217880 
	C72.367950,96.339066 71.631012,98.460258 70.202225,100.939178 
	C69.498497,103.559044 68.182014,106.178284 68.179352,108.798859 
	C68.072433,214.215500 68.080673,319.632263 68.106537,425.049011 
	C68.107056,427.179871 68.490631,429.310638 68.564850,431.770020 
	C68.564850,431.770020 68.746788,432.073151 68.600403,432.895142 
	C71.789108,451.374451 89.327087,460.454193 101.957466,460.472870 
	C105.257935,460.505646 108.558411,460.538422 112.763832,460.906219 
	C122.887573,460.791748 133.011322,460.677277 144.053040,460.594849 
	C151.321533,460.582672 158.590042,460.570496 166.742371,460.896454 
	C169.873322,460.785400 173.004257,460.674316 177.053162,460.597137 
	C190.983856,460.573486 204.914536,460.549835 219.591125,460.853455 
	C220.111603,460.745514 220.632065,460.637543 222.048691,460.565918 
	C225.649902,460.556915 229.251129,460.547913 233.640167,460.884521 
	C234.474350,460.770508 235.308517,460.656494 236.980194,460.576477 
	C238.934845,460.557343 240.889511,460.538208 243.591202,460.846863 
	C244.111969,460.737122 244.632751,460.627380 245.936066,460.556122 
	C247.241577,460.545288 248.547073,460.534424 250.638748,460.877228 
	C251.473389,460.760132 252.308029,460.643036 253.821167,460.562134 
	C254.500366,460.552917 255.179550,460.543701 256.691772,460.888550 
	C258.173218,460.771698 259.654633,460.654816 262.018219,460.570404 
	C264.962799,460.557068 267.907349,460.543762 271.640808,460.874939 
	C272.475098,460.758911 273.309357,460.642883 274.928955,460.563629 
	C276.238922,460.551910 277.548859,460.540192 279.758789,460.877533 
	C286.550812,460.762695 293.342804,460.647888 301.052460,460.567993 
	C309.319214,460.551514 317.585968,460.535034 326.639465,460.870758 
	C327.473969,460.753876 328.308472,460.636993 329.928284,460.559937 
	C331.238495,460.549835 332.548676,460.539734 334.759064,460.878021 
	C341.550751,460.758728 348.342407,460.639404 355.708405,460.549866 
	C356.091522,460.539093 356.474670,460.528320 357.752716,460.871216 
	C362.250610,460.707092 366.748505,460.542969 371.944702,460.386169 
	C373.867035,459.982025 375.998596,459.975128 377.670074,459.094696 
	C381.701569,456.971161 385.517975,454.439209 390.161774,451.883331 
	C391.593842,450.536682 393.552002,449.444824 394.352325,447.792236 
	C396.219116,443.937439 400.936798,441.475464 400.805603,436.213989 
	C401.281952,435.538208 401.758331,434.862457 402.623840,433.594330 
	C402.829437,432.442352 403.035034,431.290344 403.339508,429.586761 
M190.219574,33.882759 
	C182.953232,36.903595 178.679520,42.391857 176.764832,50.771229 
	C176.722351,67.280907 176.650055,83.790672 176.694931,100.300117 
	C176.698456,101.598999 177.517807,102.895660 178.223892,104.887299 
	C179.440048,107.113396 180.656204,109.339493 181.742432,111.731850 
	C181.742432,111.731850 181.975113,112.088737 181.979965,112.014679 
	C181.979965,112.014679 181.914032,112.048759 181.947144,112.734993 
	C187.460968,119.393318 194.819763,119.724480 202.780441,119.617874 
	C226.592270,119.298981 250.413483,119.708549 274.226440,119.434685 
	C286.137787,119.297691 295.081177,110.798782 295.656067,98.879089 
	C296.353241,84.423706 296.290100,69.925865 296.261749,55.446980 
	C296.256989,53.024910 294.758728,50.605762 293.902374,47.406998 
	C293.059906,43.276539 291.528412,39.413467 287.415192,37.674019 
	C282.700897,35.680374 277.766876,34.206348 272.296600,32.268021 
	C271.851562,32.303402 271.406494,32.338787 270.069183,32.083771 
	C259.725464,32.164368 249.381729,32.244965 238.358551,32.157333 
	C237.898041,32.209789 237.437531,32.262245 236.102539,32.060921 
	C233.079895,32.145386 230.057251,32.229851 226.280640,32.140423 
	C225.513931,32.198044 224.747223,32.255665 223.212524,32.070423 
	C222.151978,32.152225 221.091446,32.234028 219.164276,32.135639 
	C217.105850,32.194244 215.047409,32.252846 212.344772,32.084377 
	C211.902649,32.161442 211.460541,32.238510 210.138290,32.140358 
	C207.749573,32.206039 205.360855,32.271721 202.119629,32.093609 
	C198.395004,32.681110 194.670395,33.268616 190.219574,33.882759 
M141.176163,241.544418 
	C141.396744,241.819839 141.682434,241.976730 142.590469,242.526825 
	C145.149704,243.003998 147.707001,243.884064 150.268478,243.896408 
	C177.736771,244.028824 205.205750,244.021103 232.674530,244.060257 
	C236.821899,244.066177 241.006363,244.478745 245.107834,244.059341 
	C251.252792,243.431000 254.347916,239.017578 254.201523,231.999298 
	C254.069260,225.658859 250.016022,220.367218 244.398865,220.201385 
	C235.262344,219.931610 226.110123,220.193283 216.048294,220.046539 
	C210.226715,220.023010 204.402344,219.875885 198.584305,220.008286 
	C191.829880,220.162003 185.079193,220.835770 178.330170,220.790939 
	C167.421509,220.718491 156.516068,220.216614 145.607315,219.990585 
	C144.758270,219.972992 143.893860,220.696457 142.398163,221.134979 
	C142.199783,221.466690 142.001419,221.798401 141.431244,222.200333 
	C141.244156,222.379257 141.122162,222.594940 140.294403,222.821884 
	C135.476791,227.147202 135.216644,234.885361 139.992615,240.673157 
	C140.308380,240.817200 140.624146,240.961258 141.176163,241.544418 
M319.006439,411.114349 
	C321.673737,409.725769 324.341003,408.337189 327.542480,407.093475 
	C334.645203,403.817688 339.673889,398.691620 342.134033,390.369720 
	C347.971741,383.085236 347.941101,374.499329 347.149323,365.926178 
	C346.900879,363.236176 345.116516,360.687958 344.145782,357.388550 
	C338.228485,337.498566 317.982178,327.309357 298.488068,330.909393 
	C298.319946,330.968933 298.151855,331.028442 297.320892,330.740082 
	C288.595123,330.702026 281.861450,335.012817 275.117859,340.959930 
	C273.381378,343.502686 271.644897,346.045410 269.152802,348.733826 
	C264.942474,354.081116 262.717621,360.082062 262.969940,367.869232 
	C262.958527,369.843475 262.913086,371.818237 262.941437,373.791901 
	C263.081055,383.519440 265.746765,392.287842 272.929840,400.028198 
	C281.361053,409.790344 292.348267,414.228821 304.928986,414.585266 
	C309.479492,414.714203 314.532959,414.966064 319.006439,411.114349 
z"/>
<path fill="#386AB2" opacity="1.000000" stroke="none" 
	d="
M372.600403,118.868187 
	C372.587585,113.373352 371.165009,108.704041 365.393280,106.238403 
	C365.529236,105.676628 365.674347,105.452621 365.819458,105.228622 
	C365.542450,105.138657 365.265900,104.971359 364.988403,104.969818 
	C349.682556,104.884491 334.376617,104.813026 319.014130,104.414146 
	C318.637573,100.665482 318.066559,97.244705 318.041016,93.819878 
	C317.930756,79.021820 317.990234,78.896599 332.956909,79.061852 
	C346.383301,79.210083 359.805908,79.690392 373.231140,79.979713 
	C375.204895,80.022240 377.183929,79.818504 379.160522,79.728714 
	C382.902710,81.150795 387.165314,81.681458 389.735626,86.225990 
	C390.955048,87.903748 391.744019,89.135551 392.718811,90.196655 
	C397.617310,95.528854 400.049408,101.926117 401.003967,109.254364 
	C401.036926,109.695099 401.056458,109.870880 401.070190,110.496811 
	C401.068604,113.953255 401.072815,116.959549 401.049866,120.413437 
	C401.040527,123.251701 401.058380,125.642395 401.071472,128.466339 
	C401.068970,130.921494 401.071198,132.943405 401.046936,135.436401 
	C401.037506,149.616165 401.054535,163.324814 401.067871,177.466644 
	C401.067963,179.921204 401.071777,181.942596 401.048706,184.405579 
	C401.039246,186.909744 401.056671,188.972290 401.070618,191.427856 
	C401.069733,192.868835 401.072296,193.916840 401.047791,195.435562 
	C401.037598,201.948410 401.054504,207.990524 401.067505,214.456268 
	C401.066559,216.574936 401.069550,218.269958 401.046387,220.433685 
	C401.037201,225.612442 401.054138,230.322540 401.067383,235.479279 
	C401.066498,238.606064 401.069366,241.286163 401.046112,244.437271 
	C401.037445,252.283401 401.054901,259.658539 401.068909,267.426849 
	C401.067566,268.868530 401.069702,269.916992 401.045532,271.435272 
	C401.319305,277.281677 401.619385,282.658264 401.923035,288.448364 
	C401.641632,291.895569 401.356598,294.929321 401.045471,298.385437 
	C401.037445,300.217194 401.055511,301.626587 401.069214,303.446655 
	C401.067108,305.226349 401.069366,306.595337 401.045471,308.397369 
	C401.035217,310.564606 401.051056,312.298767 401.063568,314.456360 
	C401.065430,316.573792 401.070618,318.267792 401.048706,320.368896 
	C401.039001,321.863007 401.056396,322.950073 401.070129,324.403137 
	C401.067963,325.501221 401.069550,326.233307 401.045044,327.436462 
	C401.034821,335.282837 401.050690,342.658112 401.066620,350.355499 
	C401.066376,351.107117 401.066071,351.536591 401.041077,352.437256 
	C401.033539,360.949585 401.050720,368.990814 401.064941,377.442383 
	C401.068573,379.220459 401.075104,380.588165 401.055603,382.303497 
	C401.047455,383.115326 401.065308,383.579559 401.076691,384.483429 
	C401.070618,387.270721 401.071045,389.618347 401.045532,392.436920 
	C401.038849,399.615936 401.058075,406.324036 401.072693,413.494354 
	C401.070679,418.290924 401.073273,422.625214 401.047668,427.392395 
	C400.709808,430.649597 400.400055,433.473877 400.090332,436.298187 
	C400.936798,441.475464 396.219116,443.937439 394.352325,447.792236 
	C393.552002,449.444824 391.593842,450.536682 389.477264,452.000793 
	C381.387421,454.892822 374.270020,458.768158 365.528931,458.083435 
	C363.076782,458.076599 361.057373,458.076385 358.604553,458.048767 
	C356.435303,458.037476 354.699371,458.053619 352.552734,458.065796 
	C350.772949,458.063263 349.403839,458.064667 347.563538,458.041290 
	C323.050110,458.036072 299.007935,458.055603 274.643982,458.074707 
	C273.893280,458.073761 273.464294,458.073181 272.564148,458.046112 
	C260.050323,458.040741 248.007706,458.061890 235.572113,458.078979 
	C234.131226,458.076813 233.083328,458.078705 231.574554,458.052368 
	C227.730713,458.041992 224.347733,458.059845 220.643341,458.077942 
	C219.893433,458.078339 219.464920,458.078491 218.566254,458.050598 
	C212.719254,458.041779 207.342407,458.061005 201.499390,458.075195 
	C188.413193,458.361542 175.794144,458.731476 163.172424,458.892975 
	C159.713959,458.937195 156.243835,458.069702 152.785385,458.114105 
	C139.664413,458.282471 126.546974,458.720367 113.426056,458.899231 
	C110.302956,458.941833 107.171494,458.371460 103.703888,458.053284 
	C102.909737,458.018433 102.455574,458.013306 101.575981,458.002197 
	C89.957031,456.904999 80.480240,452.875183 74.925613,442.378204 
	C73.151863,439.026184 71.678993,435.514984 70.062073,431.603210 
	C70.039879,420.807617 70.008217,410.485413 70.010712,400.163239 
	C70.034538,301.436432 70.064133,202.709641 70.356247,103.728195 
	C70.711639,102.509506 70.802856,101.545479 70.894073,100.581444 
	C71.631012,98.460258 72.367950,96.339066 73.772339,94.050919 
	C76.299843,91.281456 78.159889,88.678963 80.019928,86.076462 
	C80.019928,86.076462 79.996460,86.015625 80.396896,85.993690 
	C88.076698,80.712044 96.405502,79.772018 105.051178,79.976059 
	C109.938461,80.091393 114.832909,80.085594 119.720398,79.972725 
	C131.110565,79.709671 142.498474,79.348831 154.208496,79.301270 
	C154.678131,86.532837 154.690567,93.497452 155.032471,100.445854 
	C155.203232,103.916061 154.043732,105.074303 150.532440,105.030983 
	C137.400452,104.868973 124.265175,104.975708 111.131126,104.981377 
	C109.199287,104.982216 107.267441,104.981499 105.335602,104.981499 
	C107.165245,105.829964 108.976677,105.816933 110.787880,105.832039 
	C124.574944,105.947014 138.361969,106.067482 152.149002,106.186241 
	C138.354141,106.351173 124.559639,106.580750 110.764290,106.656326 
	C102.738205,106.700302 98.959488,110.385658 98.962555,118.561546 
	C98.999725,217.464661 99.036858,316.367767 99.089584,415.270874 
	C99.090912,417.763885 99.269905,420.256866 98.992203,423.312927 
	C98.408653,423.921417 98.198952,423.966766 97.986008,423.542725 
	C97.982765,320.084839 97.982765,217.096390 97.982765,114.107956 
	C97.074982,115.063065 96.988647,116.031403 96.988632,116.999748 
	C96.986618,217.769287 96.986526,318.538849 97.037399,419.308350 
	C97.038185,420.868805 97.672127,422.428955 98.017746,424.259033 
	C98.450844,424.277710 98.876793,424.026611 99.302734,423.775482 
	C101.323906,426.075043 103.345078,428.374634 105.758270,431.196991 
	C107.801437,432.144501 109.451370,432.933685 111.103897,432.939178 
	C135.157104,433.018951 159.210709,433.010742 183.264038,432.954956 
	C184.838074,432.951324 186.410828,432.391449 188.453644,432.078552 
	C246.336639,432.064240 303.750214,432.062012 361.163757,432.057068 
	C362.660980,432.056946 364.158173,432.027435 365.655396,432.011627 
	C365.378906,431.624237 365.102386,431.236816 364.825897,430.849426 
	C369.726837,429.738190 372.331146,426.764008 372.608521,421.230957 
	C372.925171,420.816467 373.211273,420.864655 373.216492,421.211182 
	C373.394196,421.816803 373.544403,422.095947 373.750336,422.325043 
	C373.831207,422.415009 374.036835,422.392822 374.185638,422.421692 
	C374.457062,420.863190 374.965515,419.304810 374.966095,417.746216 
	C375.003021,318.547607 375.003448,219.348984 374.958923,120.150375 
	C374.958160,118.404900 374.372437,116.659683 374.060272,114.569092 
	C373.992279,113.485519 373.923645,112.747208 373.854980,112.008888 
	C373.678192,112.014549 373.501404,112.020203 373.324615,112.025864 
	C373.083191,114.306641 372.841797,116.587410 372.600403,118.868187 
z"/>
<path fill="#376AB2" opacity="1.000000" stroke="none" 
	d="
M181.872360,111.565590 
	C180.656204,109.339493 179.440048,107.113396 178.111877,104.059143 
	C178.060745,85.469360 178.121628,67.707726 178.467148,49.776329 
	C179.923035,47.459492 180.750320,45.002419 182.343048,43.235199 
	C184.986160,40.302464 188.121338,37.813198 191.448547,35.111252 
	C193.876755,34.742039 195.905670,34.398701 198.407303,34.052849 
	C223.590317,34.070332 248.300613,34.090328 273.217163,34.335518 
	C276.675598,35.679745 279.962799,36.707539 283.171326,37.940144 
	C287.507568,39.605988 290.870667,42.226460 291.937592,47.137074 
	C292.165192,48.184654 293.258301,49.044189 293.960999,50.009781 
	C293.969299,50.029205 294.003784,50.053600 293.979034,50.429497 
	C293.964935,51.561607 293.975555,52.317822 293.981506,53.538040 
	C293.976044,67.973289 294.064941,81.945297 293.946625,95.915550 
	C293.848572,107.491066 284.887390,116.899384 274.142914,116.977852 
	C270.703094,117.002975 267.263031,116.995506 263.823059,116.995033 
	C243.389648,116.992271 222.955933,116.921532 202.523041,117.021812 
	C196.170547,117.052979 189.863419,117.486725 184.763626,112.556671 
	C184.188004,112.000229 182.881577,112.199776 181.914032,112.048759 
	C181.914032,112.048759 181.979965,112.014679 181.944214,111.960968 
	C181.908463,111.907257 181.872360,111.565590 181.872360,111.565590 
z"/>
<path fill="#3569B2" opacity="1.000000" stroke="none" 
	d="
M217.938660,323.770081 
	C220.007843,321.895538 222.077026,320.020996 224.819534,318.040649 
	C228.673920,315.140228 232.010513,312.502228 235.009750,309.524445 
	C249.595642,295.042755 264.119812,280.498322 278.572937,265.884277 
	C279.963593,264.478149 280.713989,262.438904 281.761627,260.693542 
	C281.761627,260.693542 281.798126,260.806244 282.112000,260.852478 
	C284.326599,258.975922 286.227356,257.053162 288.463318,255.062042 
	C295.252808,248.368149 301.707031,241.742615 308.538025,235.042633 
	C310.663574,234.456329 312.384186,233.795319 314.166016,233.458710 
	C321.499481,232.073349 327.297668,236.325394 327.204681,243.622452 
	C327.118561,250.381592 322.748199,253.993271 319.123566,258.424194 
	C317.654541,260.219971 316.617554,262.369202 315.383972,264.357605 
	C315.383972,264.357605 315.179352,264.252136 314.931335,264.246185 
	C313.799225,265.157898 312.915192,266.075562 311.727539,267.141510 
	C294.614014,284.169922 277.804077,301.050018 260.694519,318.096161 
	C259.324493,319.927429 258.254089,321.592682 257.183716,323.257965 
	C257.183716,323.257965 257.129303,323.169434 256.821136,323.136414 
	C256.054382,323.801086 255.595795,324.498718 255.137207,325.196381 
	C255.137207,325.196381 255.114914,325.082886 254.879883,325.152100 
	C254.473083,325.555084 254.301331,325.888885 254.129578,326.222656 
	C254.129578,326.222656 254.134827,326.114929 253.815643,326.096619 
	C253.046341,326.786102 252.596222,327.493896 252.146118,328.201721 
	C252.146118,328.201721 252.117157,328.090210 251.882034,328.158752 
	C251.466461,328.562775 251.285995,328.898254 251.105545,329.233734 
	C251.105545,329.233734 251.099258,329.115509 250.795105,329.111542 
	C250.048325,329.812042 249.605698,330.516479 249.163055,331.220917 
	C249.163055,331.220917 249.124756,331.104919 248.890274,331.166901 
	C248.471848,331.565125 248.287888,331.901367 248.103943,332.237640 
	C248.103943,332.237640 248.124832,332.106415 247.819458,332.097534 
	C245.074860,334.812286 242.635635,337.535980 240.196411,340.259644 
	C240.196411,340.259644 240.115250,340.157440 239.885529,340.191193 
	C239.464188,340.549896 239.272552,340.874817 239.080917,341.199768 
	C239.080917,341.199768 239.066177,341.092773 238.762115,341.108215 
	C237.993179,341.824280 237.528275,342.524933 237.063385,343.225616 
	C234.138763,345.953644 231.214157,348.681671 227.789795,351.755432 
	C226.916092,352.805084 226.542145,353.508972 226.168213,354.212891 
	C226.168228,354.212891 226.133347,354.105377 225.897980,354.173523 
	C225.484680,354.576599 225.306747,354.911591 225.128815,355.246552 
	C225.128815,355.246552 225.151123,355.126312 224.814514,355.112122 
	C217.301544,359.595001 210.151886,359.049316 202.978500,354.641693 
	C201.812973,352.893005 200.805481,351.372681 199.547516,350.099915 
	C192.441666,342.910461 185.299042,335.756866 178.121857,328.638550 
	C173.460831,324.015778 168.719528,319.473938 163.811432,314.658752 
	C163.005615,314.326477 162.402573,314.231323 161.799530,314.136139 
	C161.799530,314.136139 161.859070,314.056000 161.901215,313.672943 
	C161.897476,312.136292 161.994095,310.955658 161.781433,309.833679 
	C160.776260,304.530060 162.974380,298.255676 166.596680,296.326385 
	C171.471207,293.730133 177.220535,294.758606 181.535614,299.047485 
	C186.689438,304.170013 191.734787,309.405762 197.010498,314.398712 
	C198.324188,315.641968 200.342987,316.140198 202.037689,316.980865 
	C202.037689,316.980865 202.024628,317.003418 202.003113,317.370483 
	C205.632187,320.821991 209.044388,324.282867 213.044159,326.815948 
	C214.778061,327.914062 217.827438,327.263672 217.938660,323.770081 
z"/>
<path fill="#3569B1" opacity="1.000000" stroke="none" 
	d="
M344.035187,358.074860 
	C345.116516,360.687958 346.900879,363.236176 347.149323,365.926178 
	C347.941101,374.499329 347.971741,383.085236 341.661713,390.747192 
	C337.830872,394.878845 334.473633,398.634125 331.113220,402.386566 
	C329.748505,403.910461 328.376801,405.428101 327.008301,406.948608 
	C324.341003,408.337189 321.673737,409.725769 318.272766,410.961609 
	C316.169891,410.885651 314.746460,410.746277 313.440277,411.074066 
	C304.628204,413.285492 295.950928,412.316223 287.918457,408.628326 
	C283.423340,406.564514 279.831909,402.568878 275.716217,399.606384 
	C275.028564,399.111389 273.741913,399.448639 272.732025,399.401367 
	C265.746765,392.287842 263.081055,383.519440 262.941437,373.791901 
	C262.913086,371.818237 262.958527,369.843475 263.419983,367.328796 
	C264.929016,363.441162 265.955597,360.083191 267.057098,356.750031 
	C267.961273,354.014099 268.954590,351.307648 269.908386,348.588135 
	C271.644897,346.045410 273.381378,343.502686 275.605103,341.089783 
	C276.536194,341.360840 277.172302,341.766907 277.395905,341.604645 
	C283.458893,337.204407 289.663177,333.154419 297.413147,332.401917 
	C297.643707,332.379578 297.795349,331.544281 297.983765,331.087982 
	C298.151855,331.028442 298.319946,330.968933 299.041412,331.255859 
	C305.609619,332.347351 311.880157,332.260468 317.585144,334.013763 
	C328.828156,337.468933 336.950043,344.951080 341.599945,355.976501 
	C341.972961,356.860962 343.203278,357.383911 344.035187,358.074860 
M308.893585,389.976349 
	C309.872833,389.946381 310.896851,390.092865 311.823944,389.857452 
	C317.292297,388.468750 321.374084,383.903625 320.922058,379.113159 
	C321.502380,376.091064 322.987579,372.910492 322.491394,370.076904 
	C321.067993,361.948242 314.044678,355.649841 306.360321,354.605133 
	C299.153259,353.625305 292.153809,357.780151 287.828644,364.792053 
	C287.078156,365.501740 285.849152,366.098114 285.650085,366.938416 
	C283.281250,376.939484 288.806763,386.646851 298.659485,390.657806 
	C299.264313,390.903992 300.303986,390.081909 302.004669,389.858459 
	C304.037109,389.913818 306.069580,389.969147 308.893585,389.976349 
z"/>
<path fill="#366AB2" opacity="1.000000" stroke="none" 
	d="
M141.065262,222.847412 
	C141.122162,222.594940 141.244156,222.379257 141.923706,222.048706 
	C142.624802,221.834641 142.833435,221.772202 143.090179,221.769257 
	C143.138321,221.828720 143.222198,221.956696 143.244507,222.127747 
	C143.499268,222.193298 143.731705,222.087799 144.434875,221.996643 
	C168.936722,222.016098 192.967865,222.021194 217.302094,222.312103 
	C226.409866,222.732986 235.221954,222.709518 244.013702,223.120819 
	C246.069138,223.216980 248.833649,224.240173 249.921082,225.786697 
	C252.668579,229.694183 252.877640,234.708740 250.283691,238.423538 
	C248.790283,240.562256 244.670135,241.811646 241.717346,241.838974 
	C214.911285,242.087067 188.101700,242.026978 161.293625,241.930679 
	C155.837097,241.911087 150.382507,241.360886 144.567383,241.026245 
	C143.496521,240.645615 142.610825,240.458359 142.101120,239.917053 
	C137.035278,234.537125 138.838486,228.697021 141.065262,222.847412 
z"/>
<path fill="#004CA7" opacity="1.000000" stroke="none" 
	d="
M401.075836,426.959534 
	C401.073273,422.625214 401.070679,418.290924 401.344360,413.179443 
	C401.437561,405.590179 401.254517,398.778076 401.071472,391.965973 
	C401.071045,389.618347 401.070618,387.270721 401.282288,384.318909 
	C401.356781,383.128448 401.219208,382.542175 401.081665,381.955872 
	C401.075104,380.588165 401.068573,379.220459 401.338562,377.128418 
	C401.432037,368.258118 401.248901,360.112091 401.065765,351.966095 
	C401.066071,351.536591 401.066376,351.107117 401.340515,350.041565 
	C401.433319,341.925476 401.252228,334.445404 401.071136,326.965363 
	C401.069550,326.233307 401.067963,325.501221 401.310425,324.174561 
	C401.394897,322.373901 401.235321,321.167877 401.075775,319.961823 
	C401.070618,318.267792 401.065430,316.573792 401.317963,314.193054 
	C401.407623,311.659027 401.239624,309.811676 401.071594,307.964325 
	C401.069366,306.595337 401.067108,305.226349 401.316772,303.197998 
	C401.402985,301.013428 401.237274,299.488251 401.071564,297.963043 
	C401.356598,294.929321 401.641632,291.895569 401.951691,287.978516 
	C401.675110,281.718597 401.373474,276.342041 401.071838,270.965485 
	C401.069702,269.916992 401.067566,268.868530 401.341644,267.112274 
	C401.435974,258.925110 401.254120,251.445694 401.072235,243.966278 
	C401.069366,241.286163 401.066498,238.606064 401.339355,235.166992 
	C401.434235,229.593674 401.253387,224.779343 401.072540,219.964996 
	C401.069550,218.269958 401.066559,216.574936 401.340546,214.142303 
	C401.436646,207.258087 401.255768,201.111465 401.074890,194.964828 
	C401.072296,193.916840 401.069733,192.868835 401.327423,191.151093 
	C401.416992,188.308899 401.246307,186.136444 401.075592,183.963989 
	C401.071777,181.942596 401.067963,179.921204 401.340576,177.152008 
	C401.724884,163.168076 401.843781,149.932022 401.903229,136.695694 
	C401.905823,136.120148 401.362488,135.542145 401.073425,134.965302 
	C401.071198,132.943405 401.068970,130.921494 401.331848,128.179993 
	C401.423676,124.962212 401.250366,122.464035 401.077026,119.965851 
	C401.072815,116.959549 401.068604,113.953255 401.271515,110.368561 
	C401.727997,109.574203 401.895874,109.307030 402.184326,108.990540 
	C402.386414,108.992416 402.790588,108.996147 402.861816,109.451927 
	C403.142609,113.985413 403.352112,118.063118 403.561646,122.140823 
	C403.578217,125.414314 403.594757,128.687805 403.412323,132.596039 
	C403.333618,133.870956 403.453857,134.511108 403.574097,135.151276 
	C403.585632,231.416245 403.597198,327.681213 403.393463,424.704163 
	C403.284027,426.386444 403.389923,427.310730 403.495789,428.235016 
	C403.495789,428.235016 403.415497,428.688110 403.021484,428.722290 
	C402.110229,428.157471 401.593048,427.558502 401.075836,426.959534 
z"/>
<path fill="#0B5AAA" opacity="1.000000" stroke="none" 
	d="
M373.211273,420.864655 
	C373.211273,420.864655 372.925171,420.816467 372.783630,420.847473 
	C372.567963,418.468567 372.493835,416.058716 372.660400,413.070465 
	C372.805237,411.690125 372.709351,410.888184 372.613464,410.086212 
	C372.531769,398.450562 372.391663,386.814941 372.380554,375.179230 
	C372.356842,350.396301 372.400116,325.613342 372.661255,300.160217 
	C372.810516,298.689484 372.714417,297.888916 372.618317,297.088318 
	C372.556702,296.596283 372.495087,296.104248 372.681366,294.958374 
	C372.822296,292.569366 372.715393,290.834259 372.608490,289.099121 
	C372.526154,269.489777 372.429260,249.880463 372.368469,230.271057 
	C372.343201,222.125610 372.395081,213.979950 372.656494,205.163513 
	C372.803497,203.689362 372.705872,202.886108 372.608276,202.082840 
	C372.541260,199.319763 372.474243,196.556686 372.664124,193.052155 
	C372.816833,190.573395 372.712616,188.836090 372.608398,187.098785 
	C372.541290,185.647324 372.474152,184.195862 372.663940,182.027679 
	C372.816711,179.573578 372.712524,177.836227 372.608337,176.098862 
	C372.542816,174.321289 372.477295,172.543716 372.662720,170.089172 
	C372.814545,168.306717 372.715424,167.201202 372.616302,166.095703 
	C372.547150,150.666748 372.477997,135.237808 372.504608,119.338524 
	C372.841797,116.587410 373.083191,114.306641 373.324615,112.025864 
	C373.501404,112.020203 373.678192,112.014549 373.854980,112.008888 
	C373.923645,112.747208 373.992279,113.485519 374.039917,115.046494 
	C374.012421,215.439987 374.010742,315.010834 373.966614,414.581665 
	C373.965698,416.676086 373.474030,418.770325 373.211273,420.864655 
z"/>
<path fill="#2D5DAC" opacity="1.000000" stroke="none" 
	d="
M181.930588,112.391876 
	C182.881577,112.199776 184.188004,112.000229 184.763626,112.556671 
	C189.863419,117.486725 196.170547,117.052979 202.523041,117.021812 
	C222.955933,116.921532 243.389648,116.992271 263.823059,116.995033 
	C267.263031,116.995506 270.703094,117.002975 274.142914,116.977852 
	C284.887390,116.899384 293.848572,107.491066 293.946625,95.915550 
	C294.064941,81.945297 293.976044,67.973289 294.228760,53.345352 
	C294.321747,51.810310 294.162781,50.931953 294.003784,50.053600 
	C294.003784,50.053600 293.969299,50.029205 293.973114,49.708958 
	C293.968140,48.987560 293.959351,48.586414 293.950562,48.185265 
	C294.758728,50.605762 296.256989,53.024910 296.261749,55.446980 
	C296.290100,69.925865 296.353241,84.423706 295.656067,98.879089 
	C295.081177,110.798782 286.137787,119.297691 274.226440,119.434685 
	C250.413483,119.708549 226.592270,119.298981 202.780441,119.617874 
	C194.819763,119.724480 187.460968,119.393318 181.930588,112.391876 
z"/>
<path fill="#004CA7" opacity="1.000000" stroke="none" 
	d="
M359.037933,458.076172 
	C361.057373,458.076385 363.076782,458.076599 365.769775,458.323242 
	C367.967255,458.941528 369.491150,459.313385 370.559631,459.781921 
	C365.688690,460.091583 361.273254,460.304565 356.857788,460.517517 
	C356.474670,460.528320 356.091522,460.539093 355.052673,460.339172 
	C347.550934,460.262207 340.704926,460.395935 333.858887,460.529663 
	C332.548676,460.539734 331.238495,460.549835 329.301056,460.357544 
	C327.733459,460.276276 326.793091,460.397430 325.852722,460.518555 
	C317.585968,460.535034 309.319214,460.551514 300.226196,460.352173 
	C292.552917,460.267029 285.705872,460.397736 278.858826,460.528473 
	C277.548859,460.540192 276.238922,460.551910 274.301514,460.362457 
	C272.733337,460.284363 271.792633,460.407410 270.851929,460.530457 
	C267.907349,460.543762 264.962799,460.557068 261.290955,460.361755 
	C258.995392,460.280243 257.427063,460.407379 255.858749,460.534485 
	C255.179550,460.543701 254.500366,460.552917 253.247650,460.360901 
	C251.733627,460.281006 250.793106,460.402313 249.852585,460.523621 
	C248.547073,460.534424 247.241577,460.545288 245.350723,460.363159 
	C244.124969,460.286499 243.484558,460.402771 242.844162,460.519043 
	C240.889511,460.538208 238.934845,460.557343 236.327881,460.374634 
	C234.734497,460.294830 233.793411,460.416901 232.852341,460.538940 
	C229.251129,460.547913 225.649902,460.556915 221.407516,460.372864 
	C220.125977,460.295258 219.485596,460.410736 218.845230,460.526184 
	C204.914536,460.549835 190.983856,460.573486 176.246307,460.381744 
	C172.245819,460.296997 169.052170,460.427673 165.858536,460.558289 
	C158.590042,460.570496 151.321533,460.582672 143.227844,460.377380 
	C132.221390,460.297028 122.040131,460.434113 111.858879,460.571228 
	C108.558411,460.538422 105.257935,460.505646 101.570877,460.131500 
	C101.455490,459.515381 101.726707,459.240601 102.292770,458.957031 
	C103.073036,458.659821 103.558456,458.371429 104.043877,458.083038 
	C107.171494,458.371460 110.302956,458.941833 113.426056,458.899231 
	C126.546974,458.720367 139.664413,458.282471 152.785385,458.114105 
	C156.243835,458.069702 159.713959,458.937195 163.172424,458.892975 
	C175.794144,458.731476 188.413193,458.361542 201.814453,458.345642 
	C208.075897,458.440308 213.556137,458.259460 219.036392,458.078613 
	C219.464920,458.078491 219.893433,458.078339 220.948486,458.344299 
	C225.061798,458.433777 228.548615,458.257172 232.035416,458.080566 
	C233.083328,458.078705 234.131226,458.076813 235.888580,458.348816 
	C247.340561,458.748016 258.082947,458.908752 268.825806,458.955475 
	C270.227661,458.961548 271.632080,458.381348 273.035309,458.072662 
	C273.464294,458.073181 273.893280,458.073761 274.958923,458.347015 
	C276.241150,458.743805 276.886658,458.975800 277.532318,458.976379 
	C299.791931,458.996887 322.051544,459.010498 344.311035,458.957581 
	C345.552979,458.954620 346.793549,458.376434 348.034760,458.066040 
	C349.403839,458.064667 350.772949,458.063263 352.817200,458.319153 
	C355.340881,458.409698 357.189392,458.242920 359.037933,458.076172 
z"/>
<path fill="#173EA3" opacity="1.000000" stroke="none" 
	d="
M331.471954,184.002487 
	C328.775208,185.108246 326.084686,187.160690 323.380829,187.178329 
	C279.962891,187.461777 236.543274,187.521866 193.123978,187.550323 
	C177.001740,187.560883 160.879364,187.359131 144.379822,186.855164 
	C144.004715,186.275833 144.006851,186.095505 144.476837,185.917267 
	C196.413315,185.629181 247.882278,185.388458 299.350220,185.008392 
	C310.048737,184.929398 320.743439,184.334091 331.448334,183.987213 
	C331.456787,183.997696 331.471954,184.002487 331.471954,184.002487 
z"/>
<path fill="#2455A9" opacity="1.000000" stroke="none" 
	d="
M144.927017,241.055298 
	C150.382507,241.360886 155.837097,241.911087 161.293625,241.930679 
	C188.101700,242.026978 214.911285,242.087067 241.717346,241.838974 
	C244.670135,241.811646 248.790283,240.562256 250.283691,238.423538 
	C252.877640,234.708740 252.668579,229.694183 249.921082,225.786697 
	C248.833649,224.240173 246.069138,223.216980 244.013702,223.120819 
	C235.221954,222.709518 226.409866,222.732986 217.295059,222.012451 
	C216.978134,221.028214 216.971344,220.629440 216.964539,220.230652 
	C226.110123,220.193283 235.262344,219.931610 244.398865,220.201385 
	C250.016022,220.367218 254.069260,225.658859 254.201523,231.999298 
	C254.347916,239.017578 251.252792,243.431000 245.107834,244.059341 
	C241.006363,244.478745 236.821899,244.066177 232.674530,244.060257 
	C205.205750,244.021103 177.736771,244.028824 150.268478,243.896408 
	C147.707001,243.884064 145.149704,243.003998 142.635590,242.249115 
	C143.429474,241.666046 144.178238,241.360672 144.927017,241.055298 
z"/>
<path fill="#2455A9" opacity="1.000000" stroke="none" 
	d="
M70.548149,100.760315 
	C70.802856,101.545479 70.711639,102.509506 70.050598,104.020203 
	C69.342155,106.545303 69.082596,108.523712 69.082222,110.502174 
	C69.062500,215.160553 69.067062,319.818909 69.049171,424.477295 
	C69.048775,426.798706 68.818520,429.120087 68.695496,431.441467 
	C68.490631,429.310638 68.107056,427.179871 68.106537,425.049011 
	C68.080673,319.632263 68.072433,214.215500 68.179352,108.798859 
	C68.182014,106.178284 69.498497,103.559044 70.548149,100.760315 
z"/>
<path fill="#0240A2" opacity="1.000000" stroke="none" 
	d="
M68.630173,431.605743 
	C68.818520,429.120087 69.048775,426.798706 69.049171,424.477295 
	C69.067062,319.818909 69.062500,215.160553 69.082222,110.502174 
	C69.082596,108.523712 69.342155,106.545303 69.786430,104.274857 
	C70.064133,202.709641 70.034538,301.436432 70.010712,400.163239 
	C70.008217,410.485413 70.039879,420.807617 69.731239,431.588135 
	C69.186783,432.055359 68.966782,432.064270 68.746788,432.073151 
	C68.746788,432.073151 68.564850,431.770020 68.630173,431.605743 
z"/>
<path fill="#2D5DAC" opacity="1.000000" stroke="none" 
	d="
M153.887299,79.027611 
	C142.498474,79.348831 131.110565,79.709671 119.720398,79.972725 
	C114.832909,80.085594 109.938461,80.091393 105.051178,79.976059 
	C96.405502,79.772018 88.076698,80.712044 80.429489,85.992905 
	C84.066704,81.027603 89.417107,78.057350 95.629272,77.785141 
	C111.887451,77.072754 128.167313,76.823380 144.440979,76.521881 
	C147.869217,76.458374 151.307968,76.961121 154.720398,77.683517 
	C154.428375,78.451920 154.157837,78.739769 153.887299,79.027611 
z"/>
<path fill="#2455A9" opacity="1.000000" stroke="none" 
	d="
M378.956604,79.425674 
	C377.183929,79.818504 375.204895,80.022240 373.231140,79.979713 
	C359.805908,79.690392 346.383301,79.210083 332.956909,79.061852 
	C317.990234,78.896599 317.930756,79.021820 318.041016,93.819878 
	C318.066559,97.244705 318.637573,100.665482 318.790131,104.579788 
	C318.416901,105.371574 318.211060,105.671684 318.005249,105.971786 
	C317.323608,105.198547 316.641968,104.425308 316.290192,103.056343 
	C316.451813,100.311310 316.283569,98.162003 316.115295,96.012695 
	C316.045410,91.185600 316.155609,86.346855 315.844513,81.535362 
	C315.625153,78.143036 317.570892,76.708427 320.218872,76.737892 
	C338.521271,76.941536 356.821808,77.343765 375.120544,77.781685 
	C376.341248,77.810890 377.542419,78.656654 378.956604,79.425674 
z"/>
<path fill="#1B4EA5" opacity="1.000000" stroke="none" 
	d="
M139.892532,166.749954 
	C143.029404,165.658356 146.163254,163.624725 149.303574,163.614700 
	C208.386749,163.426102 267.470673,163.477173 326.459961,163.743500 
	C320.042542,164.041931 313.719666,164.093063 307.396729,164.105072 
	C274.948212,164.166626 242.499710,164.218109 209.581268,164.206924 
	C189.800598,164.120926 170.489777,164.080429 151.179153,164.124466 
	C149.785995,164.127640 148.394257,164.747040 146.923660,165.432129 
	C144.592377,166.582138 142.339279,167.379929 140.037689,167.820786 
	C139.956970,167.225906 139.924744,166.987930 139.892532,166.749954 
z"/>
<path fill="#173EA3" opacity="1.000000" stroke="none" 
	d="
M281.446960,260.806213 
	C280.713989,262.438904 279.963593,264.478149 278.572937,265.884277 
	C264.119812,280.498322 249.595642,295.042755 235.009750,309.524445 
	C232.010513,312.502228 228.673920,315.140228 225.126007,317.934326 
	C228.948837,313.608429 233.095520,309.240417 237.335983,304.965424 
	C251.917038,290.265686 266.530914,275.598480 281.446960,260.806213 
z"/>
<path fill="#2D5DAC" opacity="1.000000" stroke="none" 
	d="
M260.994080,317.930145 
	C277.804077,301.050018 294.614014,284.169922 311.975403,267.144592 
	C312.526825,266.999359 313.022369,267.031281 313.022369,267.031281 
	C295.884888,284.593262 278.747406,302.155243 261.302368,319.509308 
	C260.994568,318.844299 260.994324,318.387238 260.994080,317.930145 
z"/>
<path fill="#2D5DAC" opacity="1.000000" stroke="none" 
	d="
M201.778259,316.763855 
	C200.342987,316.140198 198.324188,315.641968 197.010498,314.398712 
	C191.734787,309.405762 186.689438,304.170013 181.535614,299.047485 
	C177.220535,294.758606 171.471207,293.730133 166.596680,296.326385 
	C162.974380,298.255676 160.776260,304.530060 161.781433,309.833679 
	C161.994095,310.955658 161.897476,312.136292 161.910065,313.722076 
	C156.824509,309.289154 158.880478,300.199402 163.632599,295.910370 
	C167.750320,292.193909 175.764435,290.181213 180.987762,295.767822 
	C187.635239,302.877625 194.657913,309.636597 201.778259,316.763855 
z"/>
<path fill="#003BA1" opacity="1.000000" stroke="none" 
	d="
M364.369598,430.807404 
	C365.102386,431.236816 365.378906,431.624237 365.655396,432.011627 
	C364.158173,432.027435 362.660980,432.056946 361.163757,432.057068 
	C303.750214,432.062012 246.336639,432.064240 188.457153,431.807190 
	C187.990875,431.367188 187.990555,431.186829 187.990250,431.006409 
	C208.644455,430.929871 229.298599,430.807617 249.952866,430.786652 
	C287.939636,430.748108 325.926483,430.769165 364.369598,430.807404 
z"/>
<path fill="#0B5AAA" opacity="1.000000" stroke="none" 
	d="
M187.533020,430.899567 
	C187.990555,431.186829 187.990875,431.367188 187.987701,431.818970 
	C186.410828,432.391449 184.838074,432.951324 183.264038,432.954956 
	C159.210709,433.010742 135.157104,433.018951 111.103897,432.939178 
	C109.451370,432.933685 107.801437,432.144501 106.070908,431.315491 
	C133.019608,430.871735 160.047714,430.832214 187.533020,430.899567 
z"/>
<path fill="#2455A9" opacity="1.000000" stroke="none" 
	d="
M315.689514,264.241272 
	C316.617554,262.369202 317.654541,260.219971 319.123566,258.424194 
	C322.748199,253.993271 327.118561,250.381592 327.204681,243.622452 
	C327.297668,236.325394 321.499481,232.073349 314.166016,233.458710 
	C312.384186,233.795319 310.663574,234.456329 308.454956,234.664032 
	C307.950775,234.106216 307.906464,233.852554 307.862152,233.598877 
	C309.845428,232.628571 311.739288,231.343933 313.829407,230.749084 
	C319.283508,229.196930 326.245331,233.542648 328.387756,236.975632 
	C331.626190,242.164734 331.143616,248.175644 326.796356,253.062469 
	C323.374603,256.908905 319.608337,260.448853 315.689514,264.241272 
z"/>
<path fill="#2455A9" opacity="1.000000" stroke="none" 
	d="
M164.014191,314.895844 
	C168.719528,319.473938 173.460831,324.015778 178.121857,328.638550 
	C185.299042,335.756866 192.441666,342.910461 199.547516,350.099915 
	C200.805481,351.372681 201.812973,352.893005 202.750916,354.643372 
	C202.565689,354.987701 202.111359,354.971802 202.111359,354.971802 
	C189.061462,341.888916 176.011566,328.806030 163.118225,315.379150 
	C163.521255,314.988708 163.767715,314.942261 164.014191,314.895844 
z"/>
<path fill="#2455A9" opacity="1.000000" stroke="none" 
	d="
M344.090485,357.731689 
	C343.203278,357.383911 341.972961,356.860962 341.599945,355.976501 
	C336.950043,344.951080 328.828156,337.468933 317.585144,334.013763 
	C311.880157,332.260468 305.609619,332.347351 299.302429,331.314270 
	C317.982178,327.309357 338.228485,337.498566 344.090485,357.731689 
z"/>
<path fill="#004CA7" opacity="1.000000" stroke="none" 
	d="
M216.506424,220.138596 
	C216.971344,220.629440 216.978134,221.028214 216.991959,221.726654 
	C192.967865,222.021194 168.936722,222.016098 144.249481,221.993530 
	C143.593369,221.976059 143.222198,221.956696 143.222198,221.956696 
	C143.222198,221.956696 143.138321,221.828720 143.092926,221.612549 
	C143.047516,221.396393 143.036591,221.075500 143.036591,221.075500 
	C143.893860,220.696457 144.758270,219.972992 145.607315,219.990585 
	C156.516068,220.216614 167.421509,220.718491 178.330170,220.790939 
	C185.079193,220.835770 191.829880,220.162003 198.584305,220.008286 
	C204.402344,219.875885 210.226715,220.023010 216.506424,220.138596 
z"/>
<path fill="#2455A9" opacity="1.000000" stroke="none" 
	d="
M272.830933,399.714783 
	C273.741913,399.448639 275.028564,399.111389 275.716217,399.606384 
	C279.831909,402.568878 283.423340,406.564514 287.918457,408.628326 
	C295.950928,412.316223 304.628204,413.285492 313.440277,411.074066 
	C314.746460,410.746277 316.169891,410.885651 317.894958,410.952637 
	C314.532959,414.966064 309.479492,414.714203 304.928986,414.585266 
	C292.348267,414.228821 281.361053,409.790344 272.830933,399.714783 
z"/>
<path fill="#2455A9" opacity="1.000000" stroke="none" 
	d="
M68.673599,432.484131 
	C68.966782,432.064270 69.186783,432.055359 69.737625,432.061523 
	C71.678993,435.514984 73.151863,439.026184 74.925613,442.378204 
	C80.480240,452.875183 89.957031,456.904999 101.574898,458.241577 
	C101.999252,458.486938 101.997925,458.965851 101.997925,458.965851 
	C101.726707,459.240601 101.455490,459.515381 101.145157,459.990112 
	C89.327087,460.454193 71.789108,451.374451 68.673599,432.484131 
z"/>
<path fill="#003BA1" opacity="1.000000" stroke="none" 
	d="
M210.051193,164.273102 
	C242.499710,164.218109 274.948212,164.166626 307.396729,164.105072 
	C313.719666,164.093063 320.042542,164.041931 326.853180,163.918793 
	C327.611450,163.981720 327.882019,164.134705 328.119568,164.568634 
	C328.086578,164.849564 327.959961,164.969894 327.495850,165.002014 
	C288.016296,165.028137 249.000824,165.022125 209.997467,164.829956 
	C210.009567,164.643814 210.051193,164.273102 210.051193,164.273102 
z"/>
<path fill="#0240A2" opacity="1.000000" stroke="none" 
	d="
M178.182510,49.946087 
	C178.121628,67.707726 178.060745,85.469360 177.978928,103.712173 
	C177.517807,102.895660 176.698456,101.598999 176.694931,100.300117 
	C176.650055,83.790672 176.722351,67.280907 177.165192,50.357540 
	C177.771194,49.944595 177.976852,49.945343 178.182510,49.946087 
z"/>
<path fill="#004CA7" opacity="1.000000" stroke="none" 
	d="
M273.010925,34.110325 
	C248.300613,34.090328 223.590317,34.070332 198.636108,33.788002 
	C199.918839,33.129585 201.445496,32.733498 202.972137,32.337410 
	C205.360855,32.271721 207.749573,32.206039 210.734589,32.410835 
	C211.883591,32.558022 212.436295,32.434734 212.988983,32.311447 
	C215.047409,32.252846 217.105850,32.194244 219.828827,32.433907 
	C221.655746,32.592541 222.818130,32.452915 223.980515,32.313286 
	C224.747223,32.255665 225.513931,32.198044 226.974655,32.456352 
	C230.771454,32.619755 233.874237,32.467228 236.977020,32.314705 
	C237.437531,32.262245 237.898041,32.209789 239.034729,32.474174 
	C250.127762,32.652069 260.544617,32.513119 270.961456,32.374168 
	C271.406494,32.338787 271.851562,32.303402 272.615234,32.654411 
	C272.959534,33.397308 272.985229,33.753815 273.010925,34.110325 
z"/>
<path fill="#01219B" opacity="1.000000" stroke="none" 
	d="
M154.208496,79.301270 
	C154.157837,78.739769 154.428375,78.451920 154.945679,77.992752 
	C155.579437,79.135735 156.280365,80.445122 156.301041,81.765167 
	C156.411621,88.827614 156.266174,95.894318 156.398041,102.956032 
	C156.445282,105.485504 155.693130,106.691185 152.605652,106.233200 
	C138.361969,106.067482 124.574944,105.947014 110.787880,105.832039 
	C108.976677,105.816933 107.165245,105.829964 105.335602,104.981499 
	C107.267441,104.981499 109.199287,104.982216 111.131126,104.981377 
	C124.265175,104.975708 137.400452,104.868973 150.532440,105.030983 
	C154.043732,105.074303 155.203232,103.916061 155.032471,100.445854 
	C154.690567,93.497452 154.678131,86.532837 154.208496,79.301270 
z"/>
<path fill="#2252A6" opacity="1.000000" stroke="none" 
	d="
M202.134979,355.307678 
	C202.111359,354.971802 202.565689,354.987701 202.793274,354.986023 
	C210.151886,359.049316 217.301544,359.595001 224.865479,355.145905 
	C221.826828,362.450531 208.656174,364.180756 202.134979,355.307678 
z"/>
<path fill="#2D5DAC" opacity="1.000000" stroke="none" 
	d="
M402.790588,108.996147 
	C402.790588,108.996147 402.386414,108.992416 401.936523,108.989540 
	C401.486603,108.986664 400.990540,108.989403 400.990540,108.989403 
	C400.049408,101.926117 397.617310,95.528854 392.718811,90.196655 
	C391.744019,89.135551 390.955048,87.903748 390.043121,86.409325 
	C397.486084,89.153091 399.660217,96.147667 402.235931,102.801270 
	C402.883057,104.473007 403.100677,106.311020 403.330017,108.473099 
	C403.144318,108.873573 402.790588,108.996147 402.790588,108.996147 
z"/>
<path fill="#1B4EA5" opacity="1.000000" stroke="none" 
	d="
M297.652344,330.914032 
	C297.795349,331.544281 297.643707,332.379578 297.413147,332.401917 
	C289.663177,333.154419 283.458893,337.204407 277.395905,341.604645 
	C277.172302,341.766907 276.536194,341.360840 275.909668,340.925690 
	C281.861450,335.012817 288.595123,330.702026 297.652344,330.914032 
z"/>
<path fill="#2252A6" opacity="1.000000" stroke="none" 
	d="
M273.217163,34.335518 
	C272.985229,33.753815 272.959534,33.397308 272.931091,32.773689 
	C277.766876,34.206348 282.700897,35.680374 287.415192,37.674019 
	C291.528412,39.413467 293.059906,43.276539 293.926453,47.796131 
	C293.959351,48.586414 293.968140,48.987560 293.964813,49.689533 
	C293.258301,49.044189 292.165192,48.184654 291.937592,47.137074 
	C290.870667,42.226460 287.507568,39.605988 283.171326,37.940144 
	C279.962799,36.707539 276.675598,35.679745 273.217163,34.335518 
z"/>
<path fill="#1B4EA5" opacity="1.000000" stroke="none" 
	d="
M307.563904,233.770767 
	C307.906464,233.852554 307.950775,234.106216 308.078186,234.738495 
	C301.707031,241.742615 295.252808,248.368149 288.395416,254.703827 
	C287.954865,254.174713 287.917450,253.935455 287.880035,253.696198 
	C294.341919,247.111694 300.803802,240.527176 307.563904,233.770767 
z"/>
<path fill="#2455A9" opacity="1.000000" stroke="none" 
	d="
M327.275391,407.021027 
	C328.376801,405.428101 329.748505,403.910461 331.113220,402.386566 
	C334.473633,398.634125 337.830872,394.878845 341.528259,391.080383 
	C339.673889,398.691620 334.645203,403.817688 327.275391,407.021027 
z"/>
<path fill="#2252A6" opacity="1.000000" stroke="none" 
	d="
M371.015076,459.685211 
	C369.491150,459.313385 367.967255,458.941528 366.202454,458.329865 
	C374.270020,458.768158 381.387421,454.892822 389.106934,452.095093 
	C385.517975,454.439209 381.701569,456.971161 377.670074,459.094696 
	C375.998596,459.975128 373.867035,459.982025 371.557129,460.202820 
	C371.169586,460.019440 371.015076,459.685211 371.015076,459.685211 
z"/>
<path fill="#2455A9" opacity="1.000000" stroke="none" 
	d="
M139.547623,166.866013 
	C139.924744,166.987930 139.956970,167.225906 139.959473,168.209930 
	C137.892319,175.426178 138.207977,181.330368 144.008987,185.915176 
	C144.006851,186.095505 144.004715,186.275833 144.003159,186.726654 
	C135.548035,183.977539 133.432343,175.157379 139.547623,166.866013 
z"/>
<path fill="#173EA3" opacity="1.000000" stroke="none" 
	d="
M144.567383,241.026245 
	C144.178238,241.360672 143.429474,241.666046 142.356949,241.993256 
	C141.682434,241.976730 141.396744,241.819839 140.948578,241.066559 
	C140.383835,240.464798 140.046707,240.340912 139.709579,240.217026 
	C135.216644,234.885361 135.476791,227.147202 140.679840,222.834656 
	C138.838486,228.697021 137.035278,234.537125 142.101120,239.917053 
	C142.610825,240.458359 143.496521,240.645615 144.567383,241.026245 
z"/>
<path fill="#2D5DAC" opacity="1.000000" stroke="none" 
	d="
M178.467148,49.776329 
	C177.976852,49.945343 177.771194,49.944595 177.257507,49.960625 
	C178.679520,42.391857 182.953232,36.903595 190.600967,34.190304 
	C191.004654,34.710941 191.026962,34.924038 191.049255,35.137131 
	C188.121338,37.813198 184.986160,40.302464 182.343048,43.235199 
	C180.750320,45.002419 179.923035,47.459492 178.467148,49.776329 
z"/>
<path fill="#01219B" opacity="1.000000" stroke="none" 
	d="
M318.460693,106.091049 
	C318.211060,105.671684 318.416901,105.371574 318.846710,104.905815 
	C334.376617,104.813026 349.682556,104.884491 364.988403,104.969818 
	C365.265900,104.971359 365.542450,105.138657 365.819458,105.228622 
	C365.674347,105.452621 365.529236,105.676628 365.115479,106.042603 
	C349.536560,106.193161 334.226349,106.201736 318.460693,106.091049 
z"/>
<path fill="#2252A6" opacity="1.000000" stroke="none" 
	d="
M217.563812,323.827759 
	C217.827438,327.263672 214.778061,327.914062 213.044159,326.815948 
	C209.044388,324.282867 205.632187,320.821991 201.990204,317.368774 
	C204.592224,318.923279 207.317017,320.696045 209.741653,322.812683 
	C212.100327,324.871765 214.404343,325.603577 217.563812,323.827759 
z"/>
<path fill="#1B4EA5" opacity="1.000000" stroke="none" 
	d="
M330.216614,165.776077 
	C335.139496,167.166428 335.248077,171.342300 335.499420,175.263535 
	C335.612915,177.033676 335.032623,178.848282 334.203461,180.842468 
	C333.639832,181.042236 333.149445,181.015381 332.861206,180.790863 
	C333.414703,175.410843 333.276733,170.428467 330.053223,165.944382 
	C330.107300,165.887894 330.216614,165.776077 330.216614,165.776077 
z"/>
<path fill="#173EA3" opacity="1.000000" stroke="none" 
	d="
M269.530579,348.660980 
	C268.954590,351.307648 267.961273,354.014099 267.057098,356.750031 
	C265.955597,360.083191 264.929016,363.441162 263.511536,366.873596 
	C262.717621,360.082062 264.942474,354.081116 269.530579,348.660980 
z"/>
<path fill="#2252A6" opacity="1.000000" stroke="none" 
	d="
M270.515320,32.228973 
	C260.544617,32.513119 250.127762,32.652069 239.374451,32.558289 
	C249.381729,32.244965 259.725464,32.164368 270.515320,32.228973 
z"/>
<path fill="#7693C3" opacity="1.000000" stroke="none" 
	d="
M112.311356,460.738708 
	C122.040131,460.434113 132.221390,460.297028 142.768845,460.361389 
	C133.011322,460.677277 122.887573,460.791748 112.311356,460.738708 
z"/>
<path fill="#1B4EA5" opacity="1.000000" stroke="none" 
	d="
M240.527649,340.177979 
	C242.635635,337.535980 245.074860,334.812286 247.878510,332.127991 
	C245.781570,334.810364 243.320221,337.453339 240.527649,340.177979 
z"/>
<path fill="#2252A6" opacity="1.000000" stroke="none" 
	d="
M191.448547,35.111252 
	C191.026962,34.924038 191.004654,34.710941 190.964066,34.176983 
	C194.670395,33.268616 198.395004,32.681110 202.545883,32.215508 
	C201.445496,32.733498 199.918839,33.129585 198.163391,33.790520 
	C195.905670,34.398701 193.876755,34.742039 191.448547,35.111252 
z"/>
<path fill="#7693C3" opacity="1.000000" stroke="none" 
	d="
M334.308960,460.703857 
	C340.704926,460.395935 347.550934,460.262207 354.765533,460.324280 
	C348.342407,460.639404 341.550751,460.758728 334.308960,460.703857 
z"/>
<path fill="#7693C3" opacity="1.000000" stroke="none" 
	d="
M279.308807,460.703003 
	C285.705872,460.397736 292.552917,460.267029 299.767395,460.334717 
	C293.342804,460.647888 286.550812,460.762695 279.308807,460.703003 
z"/>
<path fill="#2D5DAC" opacity="1.000000" stroke="none" 
	d="
M79.714981,86.197449 
	C78.159889,88.678963 76.299843,91.281456 74.082718,93.899750 
	C75.620438,91.383171 77.515236,88.850807 79.714981,86.197449 
z"/>
<path fill="#173EA3" opacity="1.000000" stroke="none" 
	d="
M287.573425,253.848572 
	C287.917450,253.935455 287.954865,254.174713 288.060181,254.772186 
	C286.227356,257.053162 284.326599,258.975922 282.056488,260.831818 
	C283.546997,258.510284 285.406921,256.255615 287.573425,253.848572 
z"/>
<path fill="#7693C3" opacity="1.000000" stroke="none" 
	d="
M370.559631,459.781921 
	C371.015076,459.685211 371.169586,460.019440 371.208008,460.199158 
	C366.748505,460.542969 362.250610,460.707092 357.305237,460.694366 
	C361.273254,460.304565 365.688690,460.091583 370.559631,459.781921 
z"/>
<path fill="#7693C3" opacity="1.000000" stroke="none" 
	d="
M402.861816,109.451927 
	C402.790588,108.996147 403.144318,108.873573 403.328674,108.842697 
	C403.642883,112.956001 403.772766,117.100174 403.732147,121.692589 
	C403.352112,118.063118 403.142609,113.985413 402.861816,109.451927 
z"/>
<path fill="#2252A6" opacity="1.000000" stroke="none" 
	d="
M401.047668,427.392395 
	C401.593048,427.558502 402.110229,428.157471 402.886597,428.908691 
	C403.210327,429.236206 403.274902,429.411499 402.969299,430.053284 
	C402.477631,431.742096 402.356171,432.964386 402.234711,434.186676 
	C401.758331,434.862457 401.281952,435.538208 400.447968,436.256104 
	C400.400055,433.473877 400.709808,430.649597 401.047668,427.392395 
z"/>
<path fill="#2252A6" opacity="1.000000" stroke="none" 
	d="
M236.539780,32.187813 
	C233.874237,32.467228 230.771454,32.619755 227.351639,32.543297 
	C230.057251,32.229851 233.079895,32.145386 236.539780,32.187813 
z"/>
<path fill="#1B4EA5" opacity="1.000000" stroke="none" 
	d="
M260.694489,318.096161 
	C260.994324,318.387238 260.994568,318.844299 260.997864,319.643433 
	C259.937958,321.027130 258.875031,322.068726 257.497894,323.184143 
	C258.254089,321.592682 259.324493,319.927429 260.694489,318.096161 
z"/>
<path fill="#7693C3" opacity="1.000000" stroke="none" 
	d="
M166.300446,460.727386 
	C169.052170,460.427673 172.245819,460.296997 175.787323,460.364807 
	C173.004257,460.674316 169.873322,460.785400 166.300446,460.727386 
z"/>
<path fill="#386AB2" opacity="1.000000" stroke="none" 
	d="
M315.996216,96.436157 
	C316.283569,98.162003 316.451813,100.311310 316.355835,102.725784 
	C316.020081,100.947182 315.948578,98.903404 315.996216,96.436157 
z"/>
<path fill="#386AB2" opacity="1.000000" stroke="none" 
	d="
M372.450684,176.490997 
	C372.712524,177.836227 372.816711,179.573578 372.762207,181.600830 
	C372.500000,180.221527 372.396515,178.552338 372.450684,176.490997 
z"/>
<path fill="#386AB2" opacity="1.000000" stroke="none" 
	d="
M372.449768,187.490570 
	C372.712616,188.836090 372.816833,190.573395 372.762146,192.600784 
	C372.499237,191.221359 372.395203,189.551865 372.449768,187.490570 
z"/>
<path fill="#386AB2" opacity="1.000000" stroke="none" 
	d="
M372.452271,289.491486 
	C372.715393,290.834259 372.822296,292.569366 372.772522,294.594788 
	C372.509216,293.217987 372.402649,291.550903 372.452271,289.491486 
z"/>
<path fill="#2455A9" opacity="1.000000" stroke="none" 
	d="
M313.014221,267.018860 
	C313.022369,267.031281 312.526825,266.999359 312.278992,266.996277 
	C312.915192,266.075562 313.799225,265.157898 315.044769,264.265625 
	C315.106598,264.778992 314.806946,265.266907 314.018188,265.985413 
	C313.261322,266.422150 313.094513,266.690979 313.028656,267.022461 
	C313.028656,267.022461 313.006073,267.006439 313.014221,267.018860 
z"/>
<path fill="#7693C3" opacity="1.000000" stroke="none" 
	d="
M256.275269,460.711517 
	C257.427063,460.407379 258.995392,460.280243 260.849915,460.345520 
	C259.654633,460.654816 258.173218,460.771698 256.275269,460.711517 
z"/>
<path fill="#386AB2" opacity="1.000000" stroke="none" 
	d="
M372.457947,166.456390 
	C372.715424,167.201202 372.814545,168.306717 372.762390,169.654099 
	C372.507294,168.869675 372.403442,167.843384 372.457947,166.456390 
z"/>
<path fill="#2252A6" opacity="1.000000" stroke="none" 
	d="
M223.596527,32.191856 
	C222.818130,32.452915 221.655746,32.592541 220.262131,32.524002 
	C221.091446,32.234028 222.151978,32.152225 223.596527,32.191856 
z"/>
<path fill="#7693C3" opacity="1.000000" stroke="none" 
	d="
M402.429260,433.890503 
	C402.356171,432.964386 402.477631,431.742096 402.919861,430.329102 
	C403.035034,431.290344 402.829437,432.442352 402.429260,433.890503 
z"/>
<path fill="#386AB2" opacity="1.000000" stroke="none" 
	d="
M372.459167,410.422455 
	C372.709351,410.888184 372.805237,411.690125 372.756012,412.699280 
	C372.508881,412.190521 372.406860,411.474609 372.459167,410.422455 
z"/>
<path fill="#386AB2" opacity="1.000000" stroke="none" 
	d="
M372.461853,297.423523 
	C372.714417,297.888916 372.810516,298.689484 372.761841,299.696930 
	C372.513153,299.188751 372.409241,298.473724 372.461853,297.423523 
z"/>
<path fill="#1B4EA5" opacity="1.000000" stroke="none" 
	d="
M252.416351,328.077393 
	C252.596222,327.493896 253.046341,326.786102 253.854706,326.133789 
	C253.704178,326.777222 253.195389,327.365173 252.416351,328.077393 
z"/>
<path fill="#1B4EA5" opacity="1.000000" stroke="none" 
	d="
M255.409332,325.069122 
	C255.595795,324.498718 256.054382,323.801086 256.873077,323.135193 
	C256.715942,323.758575 256.198700,324.350220 255.409332,325.069122 
z"/>
<path fill="#2252A6" opacity="1.000000" stroke="none" 
	d="
M226.442108,354.077209 
	C226.542145,353.508972 226.916092,352.805084 227.622345,352.056213 
	C227.541763,352.654663 227.128876,353.298126 226.442108,354.077209 
z"/>
<path fill="#1B4EA5" opacity="1.000000" stroke="none" 
	d="
M237.354095,343.122620 
	C237.528275,342.524933 237.993179,341.824280 238.815491,341.116577 
	C238.663544,341.746185 238.154190,342.382904 237.354095,343.122620 
z"/>
<path fill="#7693C3" opacity="1.000000" stroke="none" 
	d="
M403.683563,427.931915 
	C403.389923,427.310730 403.284027,426.386444 403.374786,425.163055 
	C403.671387,425.785583 403.771362,426.707184 403.683563,427.931915 
z"/>
<path fill="#1B4EA5" opacity="1.000000" stroke="none" 
	d="
M249.434235,331.094604 
	C249.605698,330.516479 250.048325,329.812042 250.851547,329.129395 
	C250.709885,329.756897 250.207626,330.362610 249.434235,331.094604 
z"/>
<path fill="#7693C3" opacity="1.000000" stroke="none" 
	d="
M233.246246,460.711731 
	C233.793411,460.416901 234.734497,460.294830 235.909119,460.357635 
	C235.308517,460.656494 234.474350,460.770508 233.246246,460.711731 
z"/>
<path fill="#7693C3" opacity="1.000000" stroke="none" 
	d="
M250.245667,460.700439 
	C250.793106,460.402313 251.733627,460.281006 252.908417,460.342834 
	C252.308029,460.643036 251.473389,460.760132 250.245667,460.700439 
z"/>
<path fill="#7693C3" opacity="1.000000" stroke="none" 
	d="
M271.246368,460.702698 
	C271.792633,460.407410 272.733337,460.284363 273.908844,460.344055 
	C273.309357,460.642883 272.475098,460.758911 271.246368,460.702698 
z"/>
<path fill="#7693C3" opacity="1.000000" stroke="none" 
	d="
M326.246094,460.694641 
	C326.793091,460.397430 327.733459,460.276276 328.908386,460.337646 
	C328.308472,460.636993 327.473969,460.753876 326.246094,460.694641 
z"/>
<path fill="#386AB2" opacity="1.000000" stroke="none" 
	d="
M372.454224,202.419861 
	C372.705872,202.886108 372.803497,203.689362 372.755341,204.700043 
	C372.506439,204.190613 372.403320,203.473740 372.454224,202.419861 
z"/>
<path fill="#2252A6" opacity="1.000000" stroke="none" 
	d="
M212.666870,32.197914 
	C212.436295,32.434734 211.883591,32.558022 211.174652,32.498444 
	C211.460541,32.238510 211.902649,32.161442 212.666870,32.197914 
z"/>
<path fill="#7693C3" opacity="1.000000" stroke="none" 
	d="
M219.218170,460.689819 
	C219.485596,460.410736 220.125977,460.295258 220.959442,460.354675 
	C220.632065,460.637543 220.111603,460.745514 219.218170,460.689819 
z"/>
<path fill="#7693C3" opacity="1.000000" stroke="none" 
	d="
M243.217682,460.682953 
	C243.484558,460.402771 244.124969,460.286499 244.959442,460.343903 
	C244.632751,460.627380 244.111969,460.737122 243.217682,460.682953 
z"/>
<path fill="#2D5DAC" opacity="1.000000" stroke="none" 
	d="
M163.811432,314.658752 
	C163.767715,314.942261 163.521255,314.988708 162.903839,315.098419 
	C162.183853,315.119446 161.944885,314.934753 161.807770,314.371887 
	C162.402573,314.231323 163.005615,314.326477 163.811432,314.658752 
z"/>
<path fill="#7693C3" opacity="1.000000" stroke="none" 
	d="
M403.731567,134.778839 
	C403.453857,134.511108 403.333618,133.870956 403.395203,133.041382 
	C403.681030,133.370102 403.785034,133.888245 403.731567,134.778839 
z"/>
<path fill="#1B4EA5" opacity="1.000000" stroke="none" 
	d="
M328.166992,164.815506 
	C328.828400,164.922043 329.409363,165.062653 330.103485,165.489670 
	C330.216614,165.776077 330.107300,165.887894 329.745789,165.940369 
	C328.909515,165.651871 328.434723,165.310883 327.959961,164.969894 
	C327.959961,164.969894 328.086578,164.849564 328.166992,164.815506 
z"/>
<path fill="#173EA3" opacity="1.000000" stroke="none" 
	d="
M333.149445,181.015381 
	C333.149445,181.015381 333.639832,181.042236 333.885284,181.045807 
	C333.903412,181.488327 333.676086,181.927277 333.230927,182.429718 
	C333.013092,182.493225 332.979950,182.385132 333.033264,182.044037 
	C333.107483,181.473770 333.128448,181.244583 333.149445,181.015381 
z"/>
<path fill="#2252A6" opacity="1.000000" stroke="none" 
	d="
M225.404984,355.161743 
	C225.306747,354.911591 225.484680,354.576599 225.954163,354.179596 
	C226.057541,354.437347 225.869339,354.757141 225.404984,355.161743 
z"/>
<path fill="#366AB2" opacity="1.000000" stroke="none" 
	d="
M139.851105,240.445099 
	C140.046707,240.340912 140.383835,240.464798 140.830444,240.846985 
	C140.624146,240.961258 140.308380,240.817200 139.851105,240.445099 
z"/>
<path fill="#1B4EA5" opacity="1.000000" stroke="none" 
	d="
M248.382538,332.153992 
	C248.287888,331.901367 248.471848,331.565125 248.951248,331.170258 
	C249.051529,331.431183 248.856339,331.750763 248.382538,332.153992 
z"/>
<path fill="#173EA3" opacity="1.000000" stroke="none" 
	d="
M142.717377,221.105240 
	C143.036591,221.075500 143.047516,221.396393 143.044785,221.553085 
	C142.833435,221.772202 142.624802,221.834641 142.109604,222.013596 
	C142.001419,221.798401 142.199783,221.466690 142.717377,221.105240 
z"/>
<path fill="#1B4EA5" opacity="1.000000" stroke="none" 
	d="
M331.721802,183.858032 
	C331.471954,184.002487 331.456787,183.997696 331.404968,183.773315 
	C331.475433,183.260269 331.687683,183.073853 332.031555,183.033691 
	C332.073334,183.077713 332.155945,183.166641 332.155945,183.166641 
	C332.094513,183.348938 332.033051,183.531250 331.721802,183.858032 
z"/>
<path fill="#1B4EA5" opacity="1.000000" stroke="none" 
	d="
M239.362274,341.128906 
	C239.272552,340.874817 239.464188,340.549896 239.947037,340.169373 
	C240.040054,340.428558 239.841843,340.743317 239.362274,341.128906 
z"/>
<path fill="#1B4EA5" opacity="1.000000" stroke="none" 
	d="
M332.979950,182.385132 
	C332.979950,182.385132 333.013092,182.493225 333.012177,182.548645 
	C332.898743,182.743546 332.786194,182.883041 332.414795,183.094589 
	C332.155945,183.166641 332.073334,183.077713 332.133484,182.838226 
	C332.193665,182.598740 332.543884,182.333984 332.543884,182.333984 
	C332.543884,182.333984 332.979950,182.385132 332.979950,182.385132 
z"/>
<path fill="#1B4EA5" opacity="1.000000" stroke="none" 
	d="
M251.384125,329.150269 
	C251.285995,328.898254 251.466461,328.562775 251.939331,328.164764 
	C252.042068,328.423767 251.852386,328.745300 251.384125,329.150269 
z"/>
<path fill="#2D5DAC" opacity="1.000000" stroke="none" 
	d="
M313.265564,266.941040 
	C313.094513,266.690979 313.261322,266.422150 313.745605,266.109314 
	C313.808868,266.288269 313.655670,266.573944 313.265564,266.941040 
z"/>
<path fill="#1B4EA5" opacity="1.000000" stroke="none" 
	d="
M254.405243,326.142426 
	C254.301331,325.888885 254.473083,325.555084 254.937103,325.160492 
	C255.046539,325.420532 254.863739,325.741364 254.405243,326.142426 
z"/>
<path fill="#2D5DAC" opacity="1.000000" stroke="none" 
	d="
M181.807404,111.648720 
	C181.872360,111.565590 181.908463,111.907257 181.941788,111.998001 
	C181.975113,112.088737 181.742432,111.731850 181.807404,111.648720 
z"/>
<path fill="#0240A2" opacity="1.000000" stroke="none" 
	d="
M98.010590,423.989227 
	C97.672127,422.428955 97.038185,420.868805 97.037399,419.308350 
	C96.986526,318.538849 96.986618,217.769287 96.988632,116.999748 
	C96.988647,116.031403 97.074982,115.063065 97.982765,114.107956 
	C97.982765,217.096390 97.982765,320.084839 97.991318,423.536682 
	C97.999870,424.000122 98.010582,423.989227 98.010590,423.989227 
z"/>
<path fill="#1B4EA5" opacity="1.000000" stroke="none" 
	d="
M373.216492,421.211182 
	C373.474030,418.770325 373.965698,416.676086 373.966614,414.581665 
	C374.010742,315.010834 374.012421,215.439987 374.039246,115.391747 
	C374.372437,116.659683 374.958160,118.404900 374.958923,120.150375 
	C375.003448,219.348984 375.003021,318.547607 374.966095,417.746216 
	C374.965515,419.304810 374.457062,420.863190 374.185638,422.421692 
	C374.036835,422.392822 373.831207,422.415009 373.750336,422.325043 
	C373.544403,422.095947 373.394196,421.816803 373.216492,421.211182 
z"/>
<path fill="#2252A6" opacity="1.000000" stroke="none" 
	d="
M347.563538,458.041290 
	C346.793549,458.376434 345.552979,458.954620 344.311035,458.957581 
	C322.051544,459.010498 299.791931,458.996887 277.532318,458.976379 
	C276.886658,458.975800 276.241150,458.743805 275.280640,458.347412 
	C299.007935,458.055603 323.050110,458.036072 347.563538,458.041290 
z"/>
<path fill="#2252A6" opacity="1.000000" stroke="none" 
	d="
M401.046936,135.436401 
	C401.362488,135.542145 401.905823,136.120148 401.903229,136.695694 
	C401.843781,149.932022 401.724884,163.168076 401.344299,176.718826 
	C401.054535,163.324814 401.037506,149.616165 401.046936,135.436401 
z"/>
<path fill="#2252A6" opacity="1.000000" stroke="none" 
	d="
M272.564148,458.046143 
	C271.632080,458.381348 270.227661,458.961548 268.825806,458.955475 
	C258.082947,458.908752 247.340561,458.748016 236.281555,458.352844 
	C248.007706,458.061890 260.050323,458.040741 272.564148,458.046143 
z"/>
<path fill="#2252A6" opacity="1.000000" stroke="none" 
	d="
M401.041077,352.437256 
	C401.248901,360.112091 401.432037,368.258118 401.341522,376.718079 
	C401.050720,368.990814 401.033539,360.949585 401.041077,352.437256 
z"/>
<path fill="#2252A6" opacity="1.000000" stroke="none" 
	d="
M401.046112,244.437271 
	C401.254120,251.445694 401.435974,258.925110 401.345093,266.719086 
	C401.054901,259.658539 401.037445,252.283401 401.046112,244.437271 
z"/>
<path fill="#2252A6" opacity="1.000000" stroke="none" 
	d="
M401.045044,327.436462 
	C401.252228,334.445404 401.433319,341.925476 401.340515,349.719452 
	C401.050690,342.658112 401.034821,335.282837 401.045044,327.436462 
z"/>
<path fill="#2252A6" opacity="1.000000" stroke="none" 
	d="
M401.045532,392.436920 
	C401.254517,398.778076 401.437561,405.590179 401.348938,412.717194 
	C401.058075,406.324036 401.038849,399.615936 401.045532,392.436920 
z"/>
<path fill="#2252A6" opacity="1.000000" stroke="none" 
	d="
M401.047791,195.435562 
	C401.255768,201.111465 401.436646,207.258087 401.344482,213.718689 
	C401.054504,207.990524 401.037598,201.948410 401.047791,195.435562 
z"/>
<path fill="#2252A6" opacity="1.000000" stroke="none" 
	d="
M218.566254,458.050598 
	C213.556137,458.259460 208.075897,458.440308 202.280594,458.350677 
	C207.342407,458.061005 212.719254,458.041779 218.566254,458.050598 
z"/>
<path fill="#2252A6" opacity="1.000000" stroke="none" 
	d="
M401.045532,271.435272 
	C401.373474,276.342041 401.675110,281.718597 401.948059,287.565002 
	C401.619385,282.658264 401.319305,277.281677 401.045532,271.435272 
z"/>
<path fill="#2252A6" opacity="1.000000" stroke="none" 
	d="
M401.046387,220.433685 
	C401.253387,224.779343 401.434235,229.593674 401.343079,234.720322 
	C401.054138,230.322540 401.037201,225.612442 401.046387,220.433685 
z"/>
<path fill="#2252A6" opacity="1.000000" stroke="none" 
	d="
M231.574554,458.052368 
	C228.548615,458.257172 225.061798,458.433777 221.269867,458.344055 
	C224.347733,458.059845 227.730713,458.041992 231.574554,458.052368 
z"/>
<path fill="#2252A6" opacity="1.000000" stroke="none" 
	d="
M401.049866,120.413437 
	C401.250366,122.464035 401.423676,124.962212 401.336609,127.746735 
	C401.058380,125.642395 401.040527,123.251701 401.049866,120.413437 
z"/>
<path fill="#2252A6" opacity="1.000000" stroke="none" 
	d="
M401.048706,184.405579 
	C401.246307,186.136444 401.416992,188.308899 401.330902,190.758102 
	C401.056671,188.972290 401.039246,186.909744 401.048706,184.405579 
z"/>
<path fill="#2252A6" opacity="1.000000" stroke="none" 
	d="
M401.045502,308.397369 
	C401.239624,309.811676 401.407623,311.659027 401.321259,313.769653 
	C401.051056,312.298767 401.035217,310.564606 401.045502,308.397369 
z"/>
<path fill="#2252A6" opacity="1.000000" stroke="none" 
	d="
M358.604553,458.048767 
	C357.189392,458.242920 355.340881,458.409698 353.227905,458.323120 
	C354.699371,458.053619 356.435303,458.037476 358.604553,458.048767 
z"/>
<path fill="#2252A6" opacity="1.000000" stroke="none" 
	d="
M401.045471,298.385437 
	C401.237274,299.488251 401.402985,301.013428 401.321136,302.787292 
	C401.055511,301.626587 401.037445,300.217194 401.045471,298.385437 
z"/>
<path fill="#2252A6" opacity="1.000000" stroke="none" 
	d="
M401.048706,320.368896 
	C401.235321,321.167877 401.394897,322.373901 401.314148,323.808533 
	C401.056396,322.950073 401.039001,321.863007 401.048706,320.368896 
z"/>
<path fill="#2252A6" opacity="1.000000" stroke="none" 
	d="
M102.292770,458.957031 
	C101.997925,458.965851 101.999252,458.486938 102.000336,458.247559 
	C102.455574,458.013306 102.909737,458.018433 103.703888,458.053284 
	C103.558456,458.371429 103.073036,458.659821 102.292770,458.957031 
z"/>
<path fill="#0240A2" opacity="1.000000" stroke="none" 
	d="
M99.241653,423.764404 
	C98.876793,424.026611 98.450844,424.277710 98.017738,424.259033 
	C98.010582,423.989227 97.999870,424.000122 97.994553,424.006134 
	C98.198952,423.966766 98.408653,423.921417 98.917915,423.755432 
	C99.217468,423.634827 99.180557,423.753357 99.241653,423.764404 
z"/>
<path fill="#2252A6" opacity="1.000000" stroke="none" 
	d="
M401.055634,382.303497 
	C401.219208,382.542175 401.356781,383.128448 401.288757,383.879272 
	C401.065308,383.579559 401.047455,383.115326 401.055634,382.303497 
z"/>
<path fill="#2252A6" opacity="1.000000" stroke="none" 
	d="
M401.003967,109.254364 
	C400.990540,108.989403 401.486603,108.986664 401.734436,108.987663 
	C401.895874,109.307030 401.727997,109.574203 401.277283,109.918419 
	C401.056458,109.870880 401.036926,109.695099 401.003967,109.254364 
z"/>
<path fill="#2252A6" opacity="1.000000" stroke="none" 
	d="
M293.979034,50.429497 
	C294.162781,50.931953 294.321747,51.810310 294.233459,52.881355 
	C293.975555,52.317822 293.964935,51.561607 293.979034,50.429497 
z"/>
<path fill="#F3F4F5" opacity="1.000000" stroke="none" 
	d="
M288.258057,365.350647 
	C292.153809,357.780151 299.153259,353.625305 306.360321,354.605133 
	C314.044678,355.649841 321.067993,361.948242 322.491394,370.076904 
	C322.987579,372.910492 321.502380,376.091064 320.568512,379.643372 
	C316.177307,383.457214 312.139679,386.740845 308.102020,390.024475 
	C306.069580,389.969147 304.037109,389.913818 301.376465,389.522705 
	C289.476654,384.411530 286.116119,380.057098 288.258057,365.350647 
z"/>
<path fill="#2252A6" opacity="1.000000" stroke="none" 
	d="
M288.043335,365.071350 
	C286.116119,380.057098 289.476654,384.411530 300.944763,389.471924 
	C300.303986,390.081909 299.264313,390.903992 298.659485,390.657806 
	C288.806763,386.646851 283.281250,376.939484 285.650085,366.938416 
	C285.849152,366.098114 287.078156,365.501740 288.043335,365.071350 
z"/>
<path fill="#2455A9" opacity="1.000000" stroke="none" 
	d="
M308.497803,390.000427 
	C312.139679,386.740845 316.177307,383.457214 320.522034,380.040680 
	C321.374084,383.903625 317.292297,388.468750 311.823944,389.857452 
	C310.896851,390.092865 309.872833,389.946381 308.497803,390.000427 
z"/>
<path fill="#173EA3" opacity="1.000000" stroke="none" 
	d="
M143.244507,222.127747 
	C143.222198,221.956696 143.593369,221.976059 143.778763,221.979187 
	C143.731705,222.087799 143.499268,222.193298 143.244507,222.127747 
z"/>
<path fill="#366AB2" opacity="1.000000" stroke="none" 
	d="
M333.033264,182.044037 
	C332.979950,182.385132 332.543884,182.333984 332.543884,182.333984 
	C332.543884,182.333984 332.193665,182.598740 332.091736,182.794220 
	C331.687683,183.073853 331.475433,183.260269 331.396484,183.762848 
	C320.743439,184.334091 310.048737,184.929398 299.350220,185.008392 
	C247.882278,185.388458 196.413315,185.629181 144.476837,185.917267 
	C138.207977,181.330368 137.892319,175.426178 140.007980,168.566833 
	C142.339279,167.379929 144.592377,166.582138 147.336609,165.422211 
	C152.083054,165.056000 156.338364,165.050858 160.593674,165.048019 
	C177.057571,165.036972 193.521454,165.026672 209.985352,165.016083 
	C249.000824,165.022125 288.016296,165.028137 327.495850,165.002014 
	C328.434723,165.310883 328.909515,165.651871 329.691711,165.996857 
	C333.276733,170.428467 333.414703,175.410843 332.861206,180.790863 
	C333.128448,181.244583 333.107483,181.473770 333.033264,182.044037 
z"/>
<path fill="#004CA7" opacity="1.000000" stroke="none" 
	d="
M209.997467,164.829956 
	C193.521454,165.026672 177.057571,165.036972 160.593674,165.048019 
	C156.338364,165.050858 152.083054,165.056000 147.414795,165.069992 
	C148.394257,164.747040 149.785995,164.127640 151.179153,164.124466 
	C170.489777,164.080429 189.800598,164.120926 209.581268,164.206924 
	C210.051193,164.273102 210.009567,164.643814 209.997467,164.829956 
z"/>
</svg>